# xmcd
#
# Track frame offsets: 
#        150
#        9522
#        20582
#        31760
#        42357
#        53037
#        63402
#        72705
#        83422
#        96215
#        109742
#        123332
#        135260
#        146707
#        157690
#        170317
#        181782
#        192870
#        206087
#        219642
#
# Disc length: 3104 seconds
#
# Revision: 5
# Processed by: cddbd v1.5.2PL0 Copyright (c) Steve Scherf et al.
# Submitted via: ExactAudioCopyFreeDBPlugin 1.0
#
DISCID=0b0c1e14
DTITLE=Waylon Jennings - RCA Country Legends - disc 1
DYEAR=2001
DGENRE=Country
TTITLE0=Stop The World (And Let Me Off)
TTITLE1=(That's What You Get) For Lovin' Me
TTITLE2=The Chokin' Kind
TTITLE3=Walk On Out Of My Mind
TTITLE4=Only Daddy That'll Walk The Line
TTITLE5=Yours Love
TTITLE6=Brown Eyed Handsome Man
TTITLE7=The Taker
TTITLE8=Cedartown, Georgia
TTITLE9=Sweet Dream Woman
TTITLE10=Pretend I Never Happened
TTITLE11=You Can Have Her
TTITLE12=You Ask Me To
TTITLE13=This Time
TTITLE14=I'm A Ramblin' Man
TTITLE15=Rainy Day Woman
TTITLE16=Dreaming My Dreams (With You)
TTITLE17=Are You Sure Hand Done It This Way
TTITLE18=Bob Wills Is Still The King
TTITLE19=Good Hearted Woman (Duet With Willie Nelson)
EXTD=Buddha Records YEAR: 2001
EXTT0=
EXTT1=
EXTT2=
EXTT3=
EXTT4=
EXTT5=
EXTT6=
EXTT7=
EXTT8=
EXTT9=
EXTT10=
EXTT11=
EXTT12=
EXTT13=
EXTT14=
EXTT15=
EXTT16=
EXTT17=
EXTT18=
EXTT19=
PLAYORDER=
